<svg width="2634" height="584" viewBox="0 0 2634 584" fill="none" xmlns="http://www.w3.org/2000/svg">
<g style="mix-blend-mode:overlay">
<g style="mix-blend-mode:overlay">
<path d="M2.26184 582.822H2631.29C2446.57 390.925 2266.88 191.927 2081.4 1.17847H467.952C310.25 191.776 155.615 387.057 2.26184 582.822Z" stroke="white" stroke-width="0.78" stroke-miterlimit="10"/>
</g>
<g style="mix-blend-mode:overlay">
<path d="M462.423 7.9165L2088.44 8.36973" stroke="white" stroke-width="0.78" stroke-miterlimit="10"/>
</g>
<g style="mix-blend-mode:overlay">
<path d="M447.344 26.5291L2106.49 27.1938" stroke="white" stroke-width="0.78" stroke-miterlimit="10"/>
</g>
<g style="mix-blend-mode:overlay">
<path d="M424.223 55.3242L2133.88 56.1702" stroke="white" stroke-width="0.78" stroke-miterlimit="10"/>
</g>
<g style="mix-blend-mode:overlay">
<path d="M394.316 92.5796L2169.11 93.4256" stroke="white" stroke-width="0.78" stroke-miterlimit="10"/>
</g>
<g style="mix-blend-mode:overlay">
<path d="M358.981 136.603L2210.61 137.328" stroke="white" stroke-width="0.78" stroke-miterlimit="10"/>
</g>
<g style="mix-blend-mode:overlay">
<path d="M319.625 185.673L2256.82 186.247" stroke="white" stroke-width="0.78" stroke-miterlimit="10"/>
</g>
<g style="mix-blend-mode:overlay">
<path d="M277.604 238.156L2306.16 238.519" stroke="white" stroke-width="0.78" stroke-miterlimit="10"/>
</g>
<g style="mix-blend-mode:overlay">
<path d="M234.227 292.333H2357.02" stroke="white" stroke-width="0.78" stroke-miterlimit="10"/>
</g>
<g style="mix-blend-mode:overlay">
<path d="M191.001 346.478H2408.02" stroke="white" stroke-width="0.78" stroke-miterlimit="10"/>
</g>
<g style="mix-blend-mode:overlay">
<path d="M148.93 398.841L2457.17 398.448" stroke="white" stroke-width="0.78" stroke-miterlimit="10"/>
</g>
<g style="mix-blend-mode:overlay">
<path d="M109.725 447.971L2503.29 447.397" stroke="white" stroke-width="0.78" stroke-miterlimit="10"/>
</g>
<g style="mix-blend-mode:overlay">
<path d="M74.5908 491.934L2544.66 491.209" stroke="white" stroke-width="0.78" stroke-miterlimit="10"/>
</g>
<g style="mix-blend-mode:overlay">
<path d="M44.9354 529.099L2579.74 528.344" stroke="white" stroke-width="0.78" stroke-miterlimit="10"/>
</g>
<g style="mix-blend-mode:overlay">
<path d="M22.0907 557.743C883.705 557.501 1745.31 557.29 2606.91 557.108" stroke="white" stroke-width="0.78" stroke-miterlimit="10"/>
</g>
<g style="mix-blend-mode:overlay">
<path d="M7.53955 576.235L2624.78 575.812" stroke="white" stroke-width="0.78" stroke-miterlimit="10"/>
</g>
<g style="mix-blend-mode:overlay">
<path d="M2517.51 582.822C2342.02 396.605 2183.67 187.335 2008.17 1.17847" stroke="white" stroke-width="0.78" stroke-miterlimit="10"/>
</g>
<g style="mix-blend-mode:overlay">
<path d="M2392.31 582.822C2237.75 391.408 2090.58 191.232 1934.91 1.17847" stroke="white" stroke-width="0.78" stroke-miterlimit="10"/>
</g>
<g style="mix-blend-mode:overlay">
<path d="M2272.81 582.822C2133.18 391.62 2002.16 191.262 1861.48 1.17847" stroke="white" stroke-width="0.78" stroke-miterlimit="10"/>
</g>
<g style="mix-blend-mode:overlay">
<path d="M2153.48 582.822C2028.6 391.861 1913.93 191.262 1788.14 1.17847" stroke="white" stroke-width="0.78" stroke-miterlimit="10"/>
</g>
<g style="mix-blend-mode:overlay">
<path d="M2033.7 582.822C1923.7 391.982 1825.11 191.716 1714.81 1.17847" stroke="white" stroke-width="0.78" stroke-miterlimit="10"/>
</g>
<g style="mix-blend-mode:overlay">
<path d="M1914.51 582.822C1818.8 392.284 1736.3 192.32 1641.45 1.17847" stroke="white" stroke-width="0.78" stroke-miterlimit="10"/>
</g>
<g style="mix-blend-mode:overlay">
<path d="M1794.75 582.822C1714.11 392.012 1647.58 192.713 1568.22 1.17847" stroke="white" stroke-width="0.78" stroke-miterlimit="10"/>
</g>
<g style="mix-blend-mode:overlay">
<path d="M1675.28 582.822C1610.46 391.166 1559.29 193.045 1494.78 1.17847" stroke="white" stroke-width="0.78" stroke-miterlimit="10"/>
</g>
<g style="mix-blend-mode:overlay">
<path d="M1555.78 582.822C1505.89 390.804 1470.65 193.378 1421.45 1.17847" stroke="white" stroke-width="0.78" stroke-miterlimit="10"/>
</g>
<g style="mix-blend-mode:overlay">
<path d="M1436.3 582.822C1401.12 390.381 1381.64 194.012 1348.11 1.17847" stroke="white" stroke-width="0.78" stroke-miterlimit="10"/>
</g>
<g style="mix-blend-mode:overlay">
<path d="M1316.9 582.822C1296.79 389.777 1292.75 194.496 1274.75 1.17847" stroke="white" stroke-width="0.78" stroke-miterlimit="10"/>
</g>
<g style="mix-blend-mode:overlay">
<path d="M1197.32 582.822C1192.6 389.112 1203.81 194.949 1201.42 1.17847" stroke="white" stroke-width="0.78" stroke-miterlimit="10"/>
</g>
<g style="mix-blend-mode:overlay">
<path d="M1077.85 582.822C1088.55 388.417 1114.56 195.311 1128.11 1.17847" stroke="white" stroke-width="0.78" stroke-miterlimit="10"/>
</g>
<g style="mix-blend-mode:overlay">
<path d="M958.346 582.822C984.684 387.782 1025.37 195.553 1054.75 1.17847" stroke="white" stroke-width="0.78" stroke-miterlimit="10"/>
</g>
<g style="mix-blend-mode:overlay">
<path d="M838.82 582.822C881.192 387.299 936.029 195.704 981.417 1.17847" stroke="white" stroke-width="0.78" stroke-miterlimit="10"/>
</g>
<g style="mix-blend-mode:overlay">
<path d="M719.168 582.822C777.574 386.997 846.384 195.553 908.058 1.17847" stroke="white" stroke-width="0.78" stroke-miterlimit="10"/>
</g>
<g style="mix-blend-mode:overlay">
<path d="M599.918 582.822C672.8 386.211 757.268 195.311 834.723 1.17847" stroke="white" stroke-width="0.78" stroke-miterlimit="10"/>
</g>
<g style="mix-blend-mode:overlay">
<path d="M480.216 582.822C569.634 386.211 667.723 194.919 761.49 1.17847" stroke="white" stroke-width="0.78" stroke-miterlimit="10"/>
</g>
<g style="mix-blend-mode:overlay">
<path d="M360.866 582.822C466.167 386.181 578.481 194.435 688.055 1.17847" stroke="white" stroke-width="0.78" stroke-miterlimit="10"/>
</g>
<g style="mix-blend-mode:overlay">
<path d="M241.264 582.822C362.801 386.423 488.987 193.71 614.645 1.17847" stroke="white" stroke-width="0.78" stroke-miterlimit="10"/>
</g>
<g style="mix-blend-mode:overlay">
<path d="M116.083 582.822C259.459 391.076 393.436 187.878 541.361 1.17847" stroke="white" stroke-width="0.78" stroke-miterlimit="10"/>
</g>
</g>
<g style="mix-blend-mode:overlay">
<g style="mix-blend-mode:overlay">
<path d="M2.26184 582.822H2631.29C2446.57 390.925 2266.88 191.927 2081.4 1.17847H467.952C310.25 191.776 155.615 387.057 2.26184 582.822Z" stroke="white" stroke-width="0.78" stroke-miterlimit="10"/>
</g>
<g style="mix-blend-mode:overlay">
<path d="M462.423 7.9165L2088.44 8.36973" stroke="white" stroke-width="0.78" stroke-miterlimit="10"/>
</g>
<g style="mix-blend-mode:overlay">
<path d="M447.344 26.5291L2106.49 27.1938" stroke="white" stroke-width="0.78" stroke-miterlimit="10"/>
</g>
<g style="mix-blend-mode:overlay">
<path d="M424.223 55.3242L2133.88 56.1702" stroke="white" stroke-width="0.78" stroke-miterlimit="10"/>
</g>
<g style="mix-blend-mode:overlay">
<path d="M394.316 92.5796L2169.11 93.4256" stroke="white" stroke-width="0.78" stroke-miterlimit="10"/>
</g>
<g style="mix-blend-mode:overlay">
<path d="M358.981 136.603L2210.61 137.328" stroke="white" stroke-width="0.78" stroke-miterlimit="10"/>
</g>
<g style="mix-blend-mode:overlay">
<path d="M319.625 185.673L2256.82 186.247" stroke="white" stroke-width="0.78" stroke-miterlimit="10"/>
</g>
<g style="mix-blend-mode:overlay">
<path d="M277.604 238.156L2306.16 238.519" stroke="white" stroke-width="0.78" stroke-miterlimit="10"/>
</g>
<g style="mix-blend-mode:overlay">
<path d="M234.227 292.333H2357.02" stroke="white" stroke-width="0.78" stroke-miterlimit="10"/>
</g>
<g style="mix-blend-mode:overlay">
<path d="M191.001 346.478H2408.02" stroke="white" stroke-width="0.78" stroke-miterlimit="10"/>
</g>
<g style="mix-blend-mode:overlay">
<path d="M148.93 398.841L2457.17 398.448" stroke="white" stroke-width="0.78" stroke-miterlimit="10"/>
</g>
<g style="mix-blend-mode:overlay">
<path d="M109.725 447.971L2503.29 447.397" stroke="white" stroke-width="0.78" stroke-miterlimit="10"/>
</g>
<g style="mix-blend-mode:overlay">
<path d="M74.5908 491.934L2544.66 491.209" stroke="white" stroke-width="0.78" stroke-miterlimit="10"/>
</g>
<g style="mix-blend-mode:overlay">
<path d="M44.9354 529.099L2579.74 528.344" stroke="white" stroke-width="0.78" stroke-miterlimit="10"/>
</g>
<g style="mix-blend-mode:overlay">
<path d="M22.0907 557.743C883.705 557.501 1745.31 557.29 2606.91 557.108" stroke="white" stroke-width="0.78" stroke-miterlimit="10"/>
</g>
<g style="mix-blend-mode:overlay">
<path d="M7.53955 576.235L2624.78 575.812" stroke="white" stroke-width="0.78" stroke-miterlimit="10"/>
</g>
<g style="mix-blend-mode:overlay">
<path d="M2517.51 582.822C2342.02 396.605 2183.67 187.335 2008.17 1.17847" stroke="white" stroke-width="0.78" stroke-miterlimit="10"/>
</g>
<g style="mix-blend-mode:overlay">
<path d="M2392.31 582.822C2237.75 391.408 2090.58 191.232 1934.91 1.17847" stroke="white" stroke-width="0.78" stroke-miterlimit="10"/>
</g>
<g style="mix-blend-mode:overlay">
<path d="M2272.81 582.822C2133.18 391.62 2002.16 191.262 1861.48 1.17847" stroke="white" stroke-width="0.78" stroke-miterlimit="10"/>
</g>
<g style="mix-blend-mode:overlay">
<path d="M2153.48 582.822C2028.6 391.861 1913.93 191.262 1788.14 1.17847" stroke="white" stroke-width="0.78" stroke-miterlimit="10"/>
</g>
<g style="mix-blend-mode:overlay">
<path d="M2033.7 582.822C1923.7 391.982 1825.11 191.716 1714.81 1.17847" stroke="white" stroke-width="0.78" stroke-miterlimit="10"/>
</g>
<g style="mix-blend-mode:overlay">
<path d="M1914.51 582.822C1818.8 392.284 1736.3 192.32 1641.45 1.17847" stroke="white" stroke-width="0.78" stroke-miterlimit="10"/>
</g>
<g style="mix-blend-mode:overlay">
<path d="M1794.75 582.822C1714.11 392.012 1647.58 192.713 1568.22 1.17847" stroke="white" stroke-width="0.78" stroke-miterlimit="10"/>
</g>
<g style="mix-blend-mode:overlay">
<path d="M1675.28 582.822C1610.46 391.166 1559.29 193.045 1494.78 1.17847" stroke="white" stroke-width="0.78" stroke-miterlimit="10"/>
</g>
<g style="mix-blend-mode:overlay">
<path d="M1555.78 582.822C1505.89 390.804 1470.65 193.378 1421.45 1.17847" stroke="white" stroke-width="0.78" stroke-miterlimit="10"/>
</g>
<g style="mix-blend-mode:overlay">
<path d="M1436.3 582.822C1401.12 390.381 1381.64 194.012 1348.11 1.17847" stroke="white" stroke-width="0.78" stroke-miterlimit="10"/>
</g>
<g style="mix-blend-mode:overlay">
<path d="M1316.9 582.822C1296.79 389.777 1292.75 194.496 1274.75 1.17847" stroke="white" stroke-width="0.78" stroke-miterlimit="10"/>
</g>
<g style="mix-blend-mode:overlay">
<path d="M1197.32 582.822C1192.6 389.112 1203.81 194.949 1201.42 1.17847" stroke="white" stroke-width="0.78" stroke-miterlimit="10"/>
</g>
<g style="mix-blend-mode:overlay">
<path d="M1077.85 582.822C1088.55 388.417 1114.56 195.311 1128.11 1.17847" stroke="white" stroke-width="0.78" stroke-miterlimit="10"/>
</g>
<g style="mix-blend-mode:overlay">
<path d="M958.346 582.822C984.684 387.782 1025.37 195.553 1054.75 1.17847" stroke="white" stroke-width="0.78" stroke-miterlimit="10"/>
</g>
<g style="mix-blend-mode:overlay">
<path d="M838.82 582.822C881.192 387.299 936.029 195.704 981.417 1.17847" stroke="white" stroke-width="0.78" stroke-miterlimit="10"/>
</g>
<g style="mix-blend-mode:overlay">
<path d="M719.168 582.822C777.574 386.997 846.384 195.553 908.058 1.17847" stroke="white" stroke-width="0.78" stroke-miterlimit="10"/>
</g>
<g style="mix-blend-mode:overlay">
<path d="M599.918 582.822C672.8 386.211 757.268 195.311 834.723 1.17847" stroke="white" stroke-width="0.78" stroke-miterlimit="10"/>
</g>
<g style="mix-blend-mode:overlay">
<path d="M480.216 582.822C569.634 386.211 667.723 194.919 761.49 1.17847" stroke="white" stroke-width="0.78" stroke-miterlimit="10"/>
</g>
<g style="mix-blend-mode:overlay">
<path d="M360.866 582.822C466.167 386.181 578.481 194.435 688.055 1.17847" stroke="white" stroke-width="0.78" stroke-miterlimit="10"/>
</g>
<g style="mix-blend-mode:overlay">
<path d="M241.264 582.822C362.801 386.423 488.987 193.71 614.645 1.17847" stroke="white" stroke-width="0.78" stroke-miterlimit="10"/>
</g>
<g style="mix-blend-mode:overlay">
<path d="M116.083 582.822C259.459 391.076 393.436 187.878 541.361 1.17847" stroke="white" stroke-width="0.78" stroke-miterlimit="10"/>
</g>
</g>
</svg>
