<svg width="97" height="97" viewBox="0 0 97 97" fill="none" xmlns="http://www.w3.org/2000/svg">
<g clip-path="url(#clip0_32_18)">
<g style="mix-blend-mode:overlay">
<g style="mix-blend-mode:overlay">
<path d="M48.4873 97C38.8924 97 29.513 94.1548 21.5351 88.8241C13.5572 83.4935 7.33925 75.9168 3.66744 67.0523C-0.00437111 58.1878 -0.965084 48.4335 0.906789 39.023C2.77866 29.6124 7.39905 20.9683 14.1837 14.1837C20.9683 7.39905 29.6124 2.77866 39.023 0.906789C48.4335 -0.965084 58.1878 -0.00437111 67.0523 3.66744C75.9168 7.33925 83.4935 13.5572 88.8241 21.5351C94.1548 29.513 97 38.8924 97 48.4873C96.9866 61.3495 91.8711 73.6811 82.7761 82.7761C73.6811 91.8711 61.3495 96.9866 48.4873 97ZM48.4873 7.126C40.3007 7.126 32.298 9.55393 25.4915 14.1027C18.6849 18.6514 13.3803 25.1166 10.2486 32.6805C7.11688 40.2444 6.29877 48.5672 7.89774 56.5961C9.49671 64.6251 13.4409 71.9994 19.2315 77.7864C25.0221 83.5734 32.3988 87.5131 40.4287 89.1072C48.4586 90.7012 56.7809 89.878 64.3429 86.7417C71.9049 83.6053 78.3668 78.2967 82.9114 71.4874C87.456 64.6781 89.879 56.6739 89.874 48.4873C89.8605 37.5173 85.495 27.0009 77.7357 19.2463C69.9764 11.4918 59.4573 7.13271 48.4873 7.126V7.126Z" fill="#F2F2F2" fill-opacity="0.4"/>
</g>
</g>
<path d="M74.7344 89.2653L71.0065 83.2805C71.818 82.748 72.6042 82.19 73.3903 81.6068L77.6761 87.3127C76.6363 87.9974 75.698 88.7582 74.7344 89.2653Z" fill="url(#paint0_linear_32_18)"/>
<path d="M80.212 85.1571L75.5459 79.7809C76.256 79.1469 76.9914 78.4876 77.6761 77.7775L82.748 82.8494C81.9111 83.6862 81.1503 84.4217 80.212 85.1571Z" fill="url(#paint1_linear_32_18)"/>
<path d="M85.0303 80.3388L79.6794 75.6473C80.3134 74.9372 80.9221 74.1765 81.5053 73.3903L87.1859 77.7014C86.5011 78.6144 85.7911 79.502 85.0303 80.3388Z" fill="url(#paint2_linear_32_18)"/>
<path d="M89.1639 74.8865L83.1791 71.0065C83.7032 70.195 84.2104 69.3497 84.7007 68.4706L90.9137 71.9448C90.3812 72.9592 89.7725 73.9482 89.1639 74.8865Z" fill="url(#paint3_linear_32_18)"/>
<path d="M92.486 68.927L86.0193 65.9346C86.4251 65.047 86.8055 64.1595 87.1605 63.2465L93.8047 65.7825C93.399 66.8222 92.9679 67.8873 92.486 68.927Z" fill="url(#paint4_linear_32_18)"/>
<path d="M94.9205 62.5365L88.0988 60.457C88.3778 59.5441 88.6314 58.5804 88.8342 57.6421L95.8081 59.2144C95.5545 60.3302 95.2502 61.446 94.9205 62.5365Z" fill="url(#paint5_linear_32_18)"/>
<path d="M96.366 55.7908L89.316 54.7004C89.4682 53.7621 89.5696 52.773 89.6457 51.8094L96.7464 52.3927C96.7464 53.6099 96.5942 54.7511 96.366 55.7908Z" fill="url(#paint6_linear_32_18)"/>
<path d="M97 49.0452H89.8486V48.5634C89.8486 47.7519 89.8486 46.9066 89.8486 46.0275L96.9493 45.6217C96.9493 46.56 96.9493 47.5237 96.9493 48.462L97 49.0452Z" fill="url(#paint7_linear_32_18)"/>
<path d="M7.43034 43.4915L0.355042 42.6293C0.355042 41.4881 0.659355 40.3723 0.88759 39.2565L7.88681 40.5752C7.70084 41.5557 7.54868 42.5278 7.43034 43.4915Z" fill="url(#paint8_linear_32_18)"/>
<path d="M89.5189 43.1111C89.5189 42.1474 89.24 41.1838 89.0371 40.2201L96.0363 38.8253C96.2646 39.9158 96.4421 41.057 96.5942 42.1982L89.5189 43.1111Z" fill="url(#paint9_linear_32_18)"/>
<path d="M8.54615 37.7602L1.64838 35.909C1.95269 34.8185 2.28236 33.7281 2.66276 32.6376L9.38302 34.9707C9.0787 35.8836 8.79975 36.8219 8.54615 37.7602Z" fill="url(#paint10_linear_32_18)"/>
<path d="M88.3524 37.4306C88.0988 36.5176 87.8198 35.5793 87.4902 34.6664L94.2104 32.2826C94.5908 33.3477 94.9205 34.4381 95.2248 35.5286L88.3524 37.4306Z" fill="url(#paint11_linear_32_18)"/>
<path d="M10.4481 32.2572L3.90533 29.4423C4.33645 28.4026 4.84363 27.3629 5.35082 26.3485L11.6907 29.6199C11.2596 30.4314 10.8285 31.3697 10.4481 32.2572Z" fill="url(#paint12_linear_32_18)"/>
<path d="M86.4251 31.9529C86.0193 31.0653 85.6136 30.2031 85.1571 29.417L91.4716 26.0949C92.0042 27.1093 92.486 28.149 92.9425 29.1887L86.4251 31.9529Z" fill="url(#paint13_linear_32_18)"/>
<path d="M13.1108 27.0839L7.02454 23.3814C7.6078 22.3924 8.24179 21.4541 8.90114 20.5158L14.7085 24.6494C14.1505 25.4271 13.618 26.2386 13.1108 27.0839Z" fill="url(#paint14_linear_32_18)"/>
<path d="M83.6862 26.805C83.179 25.9934 82.6211 25.1566 82.0632 24.269L87.8706 20.2876C88.5299 21.2005 89.1639 22.1642 89.7725 23.1278L83.6862 26.805Z" fill="url(#paint15_linear_32_18)"/>
<path d="M80.3135 22.0881C79.6795 21.3273 79.0201 20.5919 78.3608 19.9072L83.4327 14.9621C84.2188 15.799 84.9796 16.6358 85.715 17.498L80.3135 22.0881Z" fill="url(#paint16_linear_32_18)"/>
<path d="M76.256 17.7516C75.5459 17.1176 74.8105 16.4836 74.0497 15.875L78.4369 10.2706C79.3498 10.9806 80.212 11.7161 80.9728 12.4768L76.256 17.7516Z" fill="url(#paint17_linear_32_18)"/>
<path d="M71.6912 14.252C70.8797 13.7195 70.0429 13.1869 69.1553 12.7051L72.7563 6.54272C73.72 7.10063 74.709 7.70926 75.6473 8.36861L71.6912 14.252Z" fill="url(#paint18_linear_32_18)"/>
<path d="M66.6447 11.3357C65.7825 10.9046 64.8695 10.4988 63.9819 10.1438L66.6447 3.52496C67.7098 3.95607 68.7495 4.41255 69.7893 4.91973L66.6447 11.3357Z" fill="url(#paint19_linear_32_18)"/>
<path d="M61.2431 9.12942C60.3048 8.8251 59.3665 8.57151 58.4282 8.34327L60.1527 1.42014C61.2431 1.69909 62.3589 2.0034 63.4494 2.35844L61.2431 9.12942Z" fill="url(#paint20_linear_32_18)"/>
<path d="M55.5879 7.73462C54.6243 7.58246 53.6606 7.4303 52.697 7.32887L53.407 0.253571C54.5482 0.253571 55.6894 0.507165 56.8052 0.710041L55.5879 7.73462Z" fill="url(#paint21_linear_32_18)"/>
<path d="M46.8643 7.15137L46.5853 0H50.0089L49.7806 7.12601L46.8643 7.15137Z" fill="url(#paint22_linear_32_18)"/>
<g style="mix-blend-mode:overlay">
<g style="mix-blend-mode:overlay">
<path d="M48.4873 84.4471C41.3752 84.4471 34.4227 82.3381 28.5092 78.3867C22.5956 74.4354 17.9866 68.8193 15.2649 62.2485C12.5432 55.6777 11.831 48.4474 13.2186 41.4719C14.6061 34.4964 18.0309 28.089 23.06 23.0599C28.089 18.0309 34.4964 14.606 41.4719 13.2185C48.4475 11.831 55.6778 12.5431 62.2485 15.2648C68.8193 17.9866 74.4355 22.5956 78.3868 28.5092C82.3381 34.4227 84.4471 41.3752 84.4471 48.4873C84.4404 58.0224 80.6496 67.165 73.9073 73.9073C67.165 80.6496 58.0224 84.4403 48.4873 84.4471ZM48.4873 17.3966C42.3321 17.3966 36.3151 19.2222 31.1975 22.6424C26.08 26.0626 22.0918 30.9237 19.7374 36.6109C17.3831 42.2981 16.7683 48.5558 17.971 54.5925C19.1737 60.6291 22.1397 66.1734 26.4939 70.524C30.8481 74.8747 36.3949 77.8362 42.4325 79.034C48.4701 80.2317 54.7273 79.6119 60.4125 77.2529C66.0978 74.8939 70.9557 70.9017 74.3718 65.7814C77.7878 60.661 79.6084 54.6426 79.6034 48.4873C79.5967 40.2392 76.3154 32.3312 70.4808 26.5013C64.6461 20.6714 56.7355 17.3966 48.4873 17.3966Z" fill="#F2F2F2" fill-opacity="0.4"/>
</g>
</g>
<path d="M45.926 84.3456C36.943 83.5892 28.5717 79.4864 22.4705 72.85C16.3694 66.2135 12.9834 57.5275 12.9834 48.5127C12.9834 39.4978 16.3694 30.8118 22.4705 24.1754C28.5717 17.5389 36.943 13.4361 45.926 12.6797C46.5986 12.6797 47.2436 12.9469 47.7192 13.4225C48.1948 13.8981 48.462 14.5431 48.462 15.2157C48.4353 15.8205 48.1931 16.3959 47.7791 16.8378C47.3652 17.2796 46.8068 17.5588 46.205 17.6248C40.2592 18.0662 34.5657 20.208 29.8031 23.7947C25.0404 27.3815 21.4096 32.262 19.3432 37.8546C17.2768 43.4472 16.862 49.5161 18.1483 55.3378C19.4346 61.1596 22.3677 66.4887 26.598 70.6901C30.8284 74.8915 36.1776 77.7879 42.008 79.0341C47.8385 80.2804 53.9043 79.8239 59.4826 77.7191C65.0609 75.6143 69.9163 71.95 73.4703 67.1629C77.0242 62.3757 79.1268 56.6676 79.5273 50.7189C79.5963 50.0958 79.8936 49.5203 80.3619 49.1035C80.8302 48.6867 81.4363 48.4581 82.0633 48.4619C82.7136 48.4945 83.3265 48.776 83.775 49.2481C84.2235 49.7202 84.4732 50.3467 84.4724 50.9979C84.1415 55.7223 82.8806 60.3348 80.7622 64.5706C78.6438 68.8063 75.7095 72.5819 72.1278 75.6805C68.5462 78.7791 64.3877 81.1397 59.8913 82.6267C55.3948 84.1137 50.6489 84.6978 45.926 84.3456Z" fill="url(#paint23_linear_32_18)"/>
<path d="M57.0588 47.5997C57.0588 49.3162 56.5495 50.994 55.5954 52.4208C54.6413 53.8476 53.2853 54.9592 51.699 55.6149C50.1128 56.2706 48.3676 56.4408 46.6845 56.1041C45.0015 55.7674 43.4561 54.9389 42.2442 53.7234C41.0323 52.5079 40.2083 50.9602 39.8765 49.2761C39.5447 47.5921 39.7201 45.8475 40.3804 44.2631C41.0408 42.6788 42.1563 41.326 43.5859 40.3761C45.0155 39.4262 46.6948 38.9218 48.4113 38.9268C49.549 38.9268 50.6756 39.1513 51.7264 39.5875C52.7772 40.0236 53.7317 40.6629 54.535 41.4686C55.3383 42.2743 55.9748 43.2306 56.4079 44.2827C56.841 45.3348 57.0622 46.462 57.0588 47.5997Z" fill="url(#paint24_linear_32_18)"/>
</g>
<defs>
<linearGradient id="paint0_linear_32_18" x1="70.8797" y1="85.4361" x2="77.5493" y2="85.4361" gradientUnits="userSpaceOnUse">
<stop stop-color="#2C4ED7"/>
<stop offset="0.31" stop-color="#477EE2"/>
<stop offset="0.61" stop-color="#5DA4EB"/>
<stop offset="0.85" stop-color="#6ABBF1"/>
<stop offset="1" stop-color="#6FC4F3"/>
</linearGradient>
<linearGradient id="paint1_linear_32_18" x1="75.5459" y1="81.48" x2="82.6973" y2="81.48" gradientUnits="userSpaceOnUse">
<stop stop-color="#2C4ED7"/>
<stop offset="0.31" stop-color="#477EE2"/>
<stop offset="0.61" stop-color="#5DA4EB"/>
<stop offset="0.85" stop-color="#6ABBF1"/>
<stop offset="1" stop-color="#6FC4F3"/>
</linearGradient>
<linearGradient id="paint2_linear_32_18" x1="79.6794" y1="76.8646" x2="87.1859" y2="76.8646" gradientUnits="userSpaceOnUse">
<stop stop-color="#2C4ED7"/>
<stop offset="0.31" stop-color="#477EE2"/>
<stop offset="0.61" stop-color="#5DA4EB"/>
<stop offset="0.85" stop-color="#6ABBF1"/>
<stop offset="1" stop-color="#6FC4F3"/>
</linearGradient>
<linearGradient id="paint3_linear_32_18" x1="83.1791" y1="71.6912" x2="90.9137" y2="71.6912" gradientUnits="userSpaceOnUse">
<stop stop-color="#2C4ED7"/>
<stop offset="0.31" stop-color="#477EE2"/>
<stop offset="0.61" stop-color="#5DA4EB"/>
<stop offset="0.85" stop-color="#6ABBF1"/>
<stop offset="1" stop-color="#6FC4F3"/>
</linearGradient>
<linearGradient id="paint4_linear_32_18" x1="86.0193" y1="66.0614" x2="93.8047" y2="66.0614" gradientUnits="userSpaceOnUse">
<stop stop-color="#2C4ED7"/>
<stop offset="0.31" stop-color="#477EE2"/>
<stop offset="0.61" stop-color="#5DA4EB"/>
<stop offset="0.85" stop-color="#6ABBF1"/>
<stop offset="1" stop-color="#6FC4F3"/>
</linearGradient>
<linearGradient id="paint5_linear_32_18" x1="88.0988" y1="60.0766" x2="95.8081" y2="60.0766" gradientUnits="userSpaceOnUse">
<stop stop-color="#2C4ED7"/>
<stop offset="0.31" stop-color="#477EE2"/>
<stop offset="0.61" stop-color="#5DA4EB"/>
<stop offset="0.85" stop-color="#6ABBF1"/>
<stop offset="1" stop-color="#6FC4F3"/>
</linearGradient>
<linearGradient id="paint6_linear_32_18" x1="89.3921" y1="53.8635" x2="96.8224" y2="53.8635" gradientUnits="userSpaceOnUse">
<stop stop-color="#2C4ED7"/>
<stop offset="0.31" stop-color="#477EE2"/>
<stop offset="0.61" stop-color="#5DA4EB"/>
<stop offset="0.85" stop-color="#6ABBF1"/>
<stop offset="1" stop-color="#6FC4F3"/>
</linearGradient>
<linearGradient id="paint7_linear_32_18" x1="89.7979" y1="47.3461" x2="97" y2="47.3461" gradientUnits="userSpaceOnUse">
<stop stop-color="#2C4ED7"/>
<stop offset="0.31" stop-color="#477EE2"/>
<stop offset="0.61" stop-color="#5DA4EB"/>
<stop offset="0.85" stop-color="#6ABBF1"/>
<stop offset="1" stop-color="#6FC4F3"/>
</linearGradient>
<linearGradient id="paint8_linear_32_18" x1="0.355042" y1="41.3613" x2="7.88681" y2="41.3613" gradientUnits="userSpaceOnUse">
<stop stop-color="#2C4ED7"/>
<stop offset="0.31" stop-color="#477EE2"/>
<stop offset="0.61" stop-color="#5DA4EB"/>
<stop offset="0.85" stop-color="#6ABBF1"/>
<stop offset="1" stop-color="#6FC4F3"/>
</linearGradient>
<linearGradient id="paint9_linear_32_18" x1="89.0371" y1="41.0063" x2="96.5942" y2="41.0063" gradientUnits="userSpaceOnUse">
<stop stop-color="#2C4ED7"/>
<stop offset="0.31" stop-color="#477EE2"/>
<stop offset="0.61" stop-color="#5DA4EB"/>
<stop offset="0.85" stop-color="#6ABBF1"/>
<stop offset="1" stop-color="#6FC4F3"/>
</linearGradient>
<linearGradient id="paint10_linear_32_18" x1="1.64838" y1="35.1989" x2="9.38302" y2="35.1989" gradientUnits="userSpaceOnUse">
<stop stop-color="#2C4ED7"/>
<stop offset="0.31" stop-color="#477EE2"/>
<stop offset="0.61" stop-color="#5DA4EB"/>
<stop offset="0.85" stop-color="#6ABBF1"/>
<stop offset="1" stop-color="#6FC4F3"/>
</linearGradient>
<linearGradient id="paint11_linear_32_18" x1="87.4902" y1="34.8693" x2="95.2248" y2="34.8693" gradientUnits="userSpaceOnUse">
<stop stop-color="#2C4ED7"/>
<stop offset="0.31" stop-color="#477EE2"/>
<stop offset="0.61" stop-color="#5DA4EB"/>
<stop offset="0.85" stop-color="#6ABBF1"/>
<stop offset="1" stop-color="#6FC4F3"/>
</linearGradient>
<linearGradient id="paint12_linear_32_18" x1="3.90533" y1="29.3155" x2="11.6907" y2="29.3155" gradientUnits="userSpaceOnUse">
<stop stop-color="#2C4ED7"/>
<stop offset="0.31" stop-color="#477EE2"/>
<stop offset="0.61" stop-color="#5DA4EB"/>
<stop offset="0.85" stop-color="#6ABBF1"/>
<stop offset="1" stop-color="#6FC4F3"/>
</linearGradient>
<linearGradient id="paint13_linear_32_18" x1="85.1571" y1="28.9859" x2="92.9425" y2="28.9859" gradientUnits="userSpaceOnUse">
<stop stop-color="#2C4ED7"/>
<stop offset="0.31" stop-color="#477EE2"/>
<stop offset="0.61" stop-color="#5DA4EB"/>
<stop offset="0.85" stop-color="#6ABBF1"/>
<stop offset="1" stop-color="#6FC4F3"/>
</linearGradient>
<linearGradient id="paint14_linear_32_18" x1="7.02454" y1="23.7872" x2="14.7085" y2="23.7872" gradientUnits="userSpaceOnUse">
<stop stop-color="#2C4ED7"/>
<stop offset="0.31" stop-color="#477EE2"/>
<stop offset="0.61" stop-color="#5DA4EB"/>
<stop offset="0.85" stop-color="#6ABBF1"/>
<stop offset="1" stop-color="#6FC4F3"/>
</linearGradient>
<linearGradient id="paint15_linear_32_18" x1="82.0886" y1="23.5082" x2="89.7725" y2="23.5082" gradientUnits="userSpaceOnUse">
<stop stop-color="#2C4ED7"/>
<stop offset="0.31" stop-color="#477EE2"/>
<stop offset="0.61" stop-color="#5DA4EB"/>
<stop offset="0.85" stop-color="#6ABBF1"/>
<stop offset="1" stop-color="#6FC4F3"/>
</linearGradient>
<linearGradient id="paint16_linear_32_18" x1="78.3608" y1="18.5124" x2="85.7911" y2="18.5124" gradientUnits="userSpaceOnUse">
<stop stop-color="#2C4ED7"/>
<stop offset="0.31" stop-color="#477EE2"/>
<stop offset="0.61" stop-color="#5DA4EB"/>
<stop offset="0.85" stop-color="#6ABBF1"/>
<stop offset="1" stop-color="#6FC4F3"/>
</linearGradient>
<linearGradient id="paint17_linear_32_18" x1="74.0497" y1="14.1252" x2="81.0489" y2="14.1252" gradientUnits="userSpaceOnUse">
<stop stop-color="#2C4ED7"/>
<stop offset="0.31" stop-color="#477EE2"/>
<stop offset="0.61" stop-color="#5DA4EB"/>
<stop offset="0.85" stop-color="#6ABBF1"/>
<stop offset="1" stop-color="#6FC4F3"/>
</linearGradient>
<linearGradient id="paint18_linear_32_18" x1="69.206" y1="10.3974" x2="75.698" y2="10.3974" gradientUnits="userSpaceOnUse">
<stop stop-color="#2C4ED7"/>
<stop offset="0.31" stop-color="#477EE2"/>
<stop offset="0.61" stop-color="#5DA4EB"/>
<stop offset="0.85" stop-color="#6ABBF1"/>
<stop offset="1" stop-color="#6FC4F3"/>
</linearGradient>
<linearGradient id="paint19_linear_32_18" x1="63.9819" y1="7.43032" x2="69.7893" y2="7.43032" gradientUnits="userSpaceOnUse">
<stop stop-color="#2C4ED7"/>
<stop offset="0.31" stop-color="#477EE2"/>
<stop offset="0.61" stop-color="#5DA4EB"/>
<stop offset="0.85" stop-color="#6ABBF1"/>
<stop offset="1" stop-color="#6FC4F3"/>
</linearGradient>
<linearGradient id="paint20_linear_32_18" x1="58.4282" y1="5.27478" x2="63.4494" y2="5.27478" gradientUnits="userSpaceOnUse">
<stop stop-color="#2C4ED7"/>
<stop offset="0.31" stop-color="#477EE2"/>
<stop offset="0.61" stop-color="#5DA4EB"/>
<stop offset="0.85" stop-color="#6ABBF1"/>
<stop offset="1" stop-color="#6FC4F3"/>
</linearGradient>
<linearGradient id="paint21_linear_32_18" x1="52.697" y1="3.98141" x2="56.8052" y2="3.98141" gradientUnits="userSpaceOnUse">
<stop stop-color="#2C4ED7"/>
<stop offset="0.31" stop-color="#477EE2"/>
<stop offset="0.61" stop-color="#5DA4EB"/>
<stop offset="0.85" stop-color="#6ABBF1"/>
<stop offset="1" stop-color="#6FC4F3"/>
</linearGradient>
<linearGradient id="paint22_linear_32_18" x1="46.5853" y1="3.57569" x2="50.0089" y2="3.57569" gradientUnits="userSpaceOnUse">
<stop stop-color="#2C4ED7"/>
<stop offset="0.31" stop-color="#477EE2"/>
<stop offset="0.61" stop-color="#5DA4EB"/>
<stop offset="0.85" stop-color="#6ABBF1"/>
<stop offset="1" stop-color="#6FC4F3"/>
</linearGradient>
<linearGradient id="paint23_linear_32_18" x1="12.5529" y1="48.538" x2="84.371" y2="48.538" gradientUnits="userSpaceOnUse">
<stop stop-color="#2C4ED7"/>
<stop offset="0.31" stop-color="#477EE2"/>
<stop offset="0.61" stop-color="#5DA4EB"/>
<stop offset="0.85" stop-color="#6ABBF1"/>
<stop offset="1" stop-color="#6FC4F3"/>
</linearGradient>
<linearGradient id="paint24_linear_32_18" x1="39.7383" y1="47.5997" x2="57.0588" y2="47.5997" gradientUnits="userSpaceOnUse">
<stop stop-color="#2C4ED7"/>
<stop offset="0.31" stop-color="#477EE2"/>
<stop offset="0.61" stop-color="#5DA4EB"/>
<stop offset="0.85" stop-color="#6ABBF1"/>
<stop offset="1" stop-color="#6FC4F3"/>
</linearGradient>
<clipPath id="clip0_32_18">
<rect width="97" height="97" fill="white"/>
</clipPath>
</defs>
</svg>
