<svg width="111" height="111" viewBox="0 0 111 111" fill="none" xmlns="http://www.w3.org/2000/svg">
<path d="M37 69.375H74M46.25 101.75H64.75H46.25ZM23.125 41.625C23.125 33.0386 26.5359 24.8039 32.6074 18.7324C38.6789 12.6609 46.9136 9.25 55.5 9.25C64.0864 9.25 72.3211 12.6609 78.3926 18.7324C84.4641 24.8039 87.875 33.0386 87.875 41.625C87.878 46.8377 86.6173 51.9735 84.2008 56.5922C81.7843 61.211 78.2841 65.175 74 68.1448L71.4933 80.0125C71.1614 82.2 70.0564 84.1961 68.3788 85.6386C66.7012 87.0811 64.5621 87.8746 62.3496 87.875H48.6504C46.4379 87.8746 44.2988 87.0811 42.6212 85.6386C40.9436 84.1961 39.8386 82.2 39.5067 80.0125L37 68.1956C32.7145 65.2154 29.2141 61.242 26.798 56.615C24.3818 51.988 23.1216 46.8449 23.125 41.625V41.625Z" stroke="#0AEBED" stroke-width="7" stroke-linecap="round" stroke-linejoin="round"/>
</svg>
