<svg width="111" height="111" viewBox="0 0 111 111" fill="none" xmlns="http://www.w3.org/2000/svg">
<path d="M50.875 9.25C59.8593 9.25059 68.5367 12.5193 75.2885 18.4465C82.0403 24.3737 86.4054 32.5546 87.5698 41.4631L97.976 57.831C98.6605 58.9086 98.5218 60.5135 96.9354 61.198L87.875 65.0737V78.625C87.875 81.0783 86.9005 83.431 85.1657 85.1657C83.431 86.9004 81.0783 87.875 78.625 87.875H69.3796L69.375 101.75H27.75V84.6653C27.75 79.2077 25.7335 74.0416 21.9965 69.3796C17.6386 63.9384 14.9066 57.3768 14.1151 50.4506C13.3237 43.5245 14.505 36.5157 17.5231 30.2316C20.5411 23.9476 25.2731 18.644 31.1738 14.9319C37.0744 11.2198 43.9038 9.25017 50.875 9.25ZM50.875 18.5C45.6468 18.4998 40.5249 19.9765 36.0993 22.7601C31.6738 25.5436 28.1245 29.5208 25.8606 34.2334C23.5966 38.946 22.71 44.2022 23.3028 49.3967C23.8957 54.5912 25.9439 59.5125 29.2115 63.5938C34.2713 69.9022 37 77.0849 37 84.6653V92.5H60.125L60.1343 78.625H78.625V58.978L85.7937 55.907L78.6574 44.6914L78.3938 42.6471C77.5182 35.9682 74.2436 29.8356 69.1804 25.3928C64.1172 20.95 57.6111 18.5001 50.875 18.5ZM50.875 32.375C52.1016 32.375 53.278 32.8623 54.1454 33.7296C55.0127 34.597 55.5 35.7734 55.5 37V41.625H60.125C61.3516 41.625 62.528 42.1123 63.3954 42.9796C64.2627 43.847 64.75 45.0234 64.75 46.25C64.75 47.4766 64.2627 48.653 63.3954 49.5204C62.528 50.3877 61.3516 50.875 60.125 50.875H55.5V55.5C55.5 56.7266 55.0127 57.903 54.1454 58.7704C53.278 59.6377 52.1016 60.125 50.875 60.125C49.6484 60.125 48.472 59.6377 47.6046 58.7704C46.7373 57.903 46.25 56.7266 46.25 55.5V50.8704L41.625 50.875C40.3984 50.875 39.222 50.3877 38.3546 49.5204C37.4873 48.653 37 47.4766 37 46.25C37 45.0234 37.4873 43.847 38.3546 42.9796C39.222 42.1123 40.3984 41.625 41.625 41.625L46.25 41.6204V37C46.25 35.7734 46.7373 34.597 47.6046 33.7296C48.472 32.8623 49.6484 32.375 50.875 32.375Z" fill="#0AEBED"/>
</svg>
