<svg width="111" height="111" viewBox="0 0 111 111" fill="none" xmlns="http://www.w3.org/2000/svg">
<path d="M97.125 6.9375C98.9649 6.9375 100.73 7.66841 102.031 8.96945C103.332 10.2705 104.062 12.0351 104.062 13.875V69.375C104.062 71.2149 103.332 72.9795 102.031 74.2806C100.73 75.5816 98.9649 76.3125 97.125 76.3125H79.7812C77.6272 76.3125 75.5028 76.814 73.5762 77.7773C71.6495 78.7406 69.9737 80.1393 68.6812 81.8625L55.5 99.4352L42.3187 81.8625C41.0263 80.1393 39.3505 78.7406 37.4238 77.7773C35.4972 76.814 33.3728 76.3125 31.2188 76.3125H13.875C12.0351 76.3125 10.2705 75.5816 8.96945 74.2806C7.66841 72.9795 6.9375 71.2149 6.9375 69.375V13.875C6.9375 12.0351 7.66841 10.2705 8.96945 8.96945C10.2705 7.66841 12.0351 6.9375 13.875 6.9375H97.125ZM13.875 0C10.1951 0 6.66596 1.46183 4.06389 4.06389C1.46183 6.66596 0 10.1951 0 13.875L0 69.375C0 73.0549 1.46183 76.584 4.06389 79.1861C6.66596 81.7882 10.1951 83.25 13.875 83.25H31.2188C32.2958 83.25 33.358 83.5008 34.3213 83.9824C35.2846 84.4641 36.1225 85.1634 36.7688 86.025L49.95 103.598C50.5962 104.459 51.4341 105.159 52.3975 105.64C53.3608 106.122 54.423 106.373 55.5 106.373C56.577 106.373 57.6392 106.122 58.6025 105.64C59.5658 105.159 60.4038 104.459 61.05 103.598L74.2312 86.025C74.8775 85.1634 75.7154 84.4641 76.6787 83.9824C77.642 83.5008 78.7042 83.25 79.7812 83.25H97.125C100.805 83.25 104.334 81.7882 106.936 79.1861C109.538 76.584 111 73.0549 111 69.375V13.875C111 10.1951 109.538 6.66596 106.936 4.06389C104.334 1.46183 100.805 0 97.125 0L13.875 0Z" fill="#0AEBED"/>
<path d="M55.5 27.7013C67.044 15.8313 95.9109 36.6021 55.5 63.3046C15.089 36.5952 43.956 15.8313 55.5 27.7013Z" fill="#0AEBED"/>
</svg>
