<svg width="111" height="111" viewBox="0 0 111 111" fill="none" xmlns="http://www.w3.org/2000/svg">
<g clip-path="url(#clip0_21_98)">
<path d="M48.2156 3.01781C52.2393 -1.00594 58.7606 -1.00594 62.7843 3.01781L107.982 48.2226C112.006 52.2463 112.006 58.7606 107.982 62.7774L62.7843 107.982C58.7606 112.006 52.2463 112.006 48.2295 107.982L3.01778 62.7844C2.06085 61.8294 1.30165 60.695 0.783653 59.4463C0.265654 58.1975 -0.000976563 56.8589 -0.000976562 55.5069C-0.000976563 54.155 0.265654 52.8163 0.783653 51.5676C1.30165 50.3188 2.06085 49.1845 3.01778 48.2295L48.2156 3.01781ZM57.9281 7.87406C57.2841 7.23013 56.4107 6.86837 55.5 6.86837C54.5893 6.86837 53.7158 7.23013 53.0718 7.87406L7.8671 53.0719C7.22316 53.7159 6.86141 54.5893 6.86141 55.5C6.86141 56.4107 7.22316 57.2841 7.8671 57.9281L53.0718 103.133C53.7158 103.777 54.5893 104.139 55.5 104.139C56.4107 104.139 57.2841 103.777 57.9281 103.133L103.133 57.9281C103.777 57.2841 104.139 56.4107 104.139 55.5C104.139 54.5893 103.777 53.7159 103.133 53.0719L57.9281 7.86712V7.87406Z" fill="#0AEBED"/>
<path d="M36.4566 40.1404C36.4471 40.3644 36.4835 40.588 36.5636 40.7975C36.6437 41.0069 36.7658 41.1977 36.9224 41.3582C37.079 41.5187 37.2668 41.6455 37.4742 41.7308C37.6816 41.816 37.9043 41.8579 38.1285 41.8539H43.8519C44.8093 41.8539 45.5724 41.07 45.6973 40.1196C46.3217 35.5686 49.4436 32.2524 55.0074 32.2524C59.7666 32.2524 64.1233 34.632 64.1233 40.3554C64.1233 44.7607 61.5287 46.7865 57.4286 49.8668C52.7597 53.2592 49.062 57.2205 49.3256 63.6516L49.3464 65.157C49.3537 65.6122 49.5396 66.0462 49.8641 66.3655C50.1886 66.6848 50.6256 66.8637 51.0808 66.8636H56.7071C57.1671 66.8636 57.6082 66.6809 57.9335 66.3556C58.2588 66.0304 58.4415 65.5892 58.4415 65.1292V64.4008C58.4415 59.4197 60.3354 57.9697 65.4484 54.0917C69.6733 50.8796 74.0786 47.3138 74.0786 39.8282C74.0786 29.3456 65.2264 24.2812 55.5347 24.2812C46.7449 24.2812 37.1156 28.3744 36.4566 40.1404V40.1404ZM47.2582 80.1212C47.2582 83.8189 50.2067 86.5522 54.2651 86.5522C58.4901 86.5522 61.3969 83.8189 61.3969 80.1212C61.3969 76.2917 58.4831 73.5999 54.2582 73.5999C50.2067 73.5999 47.2582 76.2917 47.2582 80.1212Z" fill="#0AEBED"/>
</g>
<defs>
<clipPath id="clip0_21_98">
<rect width="111" height="111" fill="white"/>
</clipPath>
</defs>
</svg>
